<?xml version="1.0" standalone="no"?>
<!DOCTYPE svg PUBLIC "-//W3C//DTD SVG 20010904//EN"
 "http://www.w3.org/TR/2001/REC-SVG-20010904/DTD/svg10.dtd">
<svg version="1.0" xmlns="http://www.w3.org/2000/svg"
 width="260.000000pt" height="260.000000pt" viewBox="0 0 260.000000 260.000000"
 preserveAspectRatio="xMidYMid meet">
<metadata>
Created by potrace 1.11, written by Peter Selinger 2001-2013
</metadata>
<g transform="translate(0.000000,260.000000) scale(0.100000,-0.100000)"
fill="#000000" stroke="none">
<path d="M495 2268 c2 -13 21 -165 40 -338 20 -173 38 -325 41 -337 4 -22 8
-23 118 -23 l113 0 24 175 c14 101 27 168 31 158 4 -10 16 -81 28 -158 12 -77
23 -148 26 -157 5 -16 19 -18 120 -18 63 0 114 4 114 9 0 5 18 162 40 350 22
187 40 345 40 351 0 6 -36 10 -89 10 l-89 0 -12 -102 c-7 -57 -18 -159 -25
-228 -6 -69 -15 -118 -18 -110 -5 13 -37 379 -37 423 0 16 -9 17 -97 15 l-98
-3 -17 -140 c-9 -77 -20 -183 -24 -235 l-8 -95 -7 60 c-4 33 -13 130 -19 215
-16 222 -4 200 -110 200 -89 0 -90 0 -85 -22z"/>
<path d="M1270 1930 l0 -360 160 0 160 0 0 70 0 69 -67 3 -68 3 -3 78 -3 77
61 0 60 0 0 70 0 70 -60 0 -60 0 0 65 0 65 65 0 65 0 0 75 0 75 -155 0 -155 0
0 -360z"/>
<path d="M1650 1930 l0 -362 174 4 c158 3 178 5 203 24 38 28 52 74 52 169 0
107 -14 144 -64 172 -39 22 -39 22 -15 31 52 20 62 43 59 136 -7 148 -42 172
-262 182 l-147 7 0 -363z m237 217 c3 -5 5 -37 5 -70 -1 -61 -10 -77 -44 -77
-16 0 -18 10 -18 78 0 43 3 81 6 84 7 8 43 -2 51 -15z m6 -297 c13 -48 1 -132
-20 -147 -38 -28 -43 -18 -43 88 l0 100 27 -3 c21 -2 29 -10 36 -38z"/>
<path d="M2140 2100 l0 -58 131 -52 131 -53 -129 -52 -128 -53 -3 -57 c-4 -68
-28 -72 230 37 l189 80 -3 46 -3 46 -207 87 -208 87 0 -58z"/>
<path d="M240 2065 l-195 -83 -3 -45 c-2 -29 1 -46 10 -50 7 -3 100 -41 206
-86 106 -45 195 -81 198 -81 3 0 4 26 2 57 l-3 57 -123 49 c-68 27 -120 53
-115 57 4 3 61 28 126 54 l117 48 0 54 c0 37 -4 54 -12 53 -7 0 -101 -38 -208
-84z"/>
<path d="M1805 1136 c-57 -25 -70 -50 -73 -140 -4 -108 10 -134 112 -206 43
-30 84 -68 92 -83 16 -30 12 -74 -10 -95 -26 -26 -46 2 -46 64 l0 54 -76 0
-77 0 6 -65 c12 -126 51 -160 182 -160 89 0 126 14 159 58 17 24 21 42 20 110
0 117 -15 144 -111 207 -43 29 -84 60 -90 68 -18 22 -16 77 3 93 14 11 18 10
30 -6 8 -10 14 -34 14 -52 l0 -33 70 0 70 0 0 55 c0 73 -19 108 -70 129 -49
19 -163 21 -205 2z"/>
<path d="M353 1129 c-50 -14 -62 -43 -72 -162 -8 -111 -20 -139 -62 -152 -15
-5 -19 -16 -19 -50 0 -37 3 -44 25 -49 37 -9 52 -50 58 -157 3 -53 11 -106 18
-117 16 -26 49 -39 112 -45 l47 -5 0 44 c0 36 -3 44 -18 44 -10 0 -27 7 -38
15 -18 12 -22 29 -28 106 -7 93 -25 145 -52 156 -12 4 -10 11 12 34 29 30 42
84 43 176 1 58 18 83 57 83 22 0 24 4 24 45 l0 45 -37 -1 c-21 0 -53 -5 -70
-10z"/>
<path d="M576 1128 c-3 -7 -21 -141 -41 -298 -20 -157 -39 -293 -41 -302 -5
-16 4 -18 80 -18 l86 0 1 33 c2 59 13 82 39 82 26 0 37 -23 39 -82 l1 -33 80
0 c72 0 80 2 80 19 0 20 -76 535 -86 584 l-6 27 -114 0 c-83 0 -116 -3 -118
-12z m140 -266 c12 -133 13 -127 -16 -127 -16 0 -26 6 -28 19 -6 29 19 216 28
211 5 -3 12 -49 16 -103z"/>
<path d="M940 826 l0 -316 80 0 79 0 3 128 3 127 60 6 c110 10 120 26 120 179
0 108 -14 151 -53 170 -16 8 -81 15 -159 18 l-133 4 0 -316z m210 131 c0 -62
-11 -87 -37 -87 -10 0 -13 21 -13 78 0 43 3 82 6 85 4 3 15 2 25 -4 16 -8 19
-21 19 -72z"/>
<path d="M1340 826 l0 -316 80 0 79 0 3 128 3 127 60 6 c111 10 120 25 120
185 0 163 -14 175 -212 182 l-133 4 0 -316z m210 183 c25 -46 1 -139 -36 -139
-11 0 -14 17 -14 78 0 43 3 81 6 85 9 9 34 -4 44 -24z"/>
<path d="M2130 1097 c0 -44 1 -46 32 -49 43 -4 58 -35 58 -121 0 -71 15 -123
44 -146 16 -13 15 -15 -3 -35 -30 -32 -41 -71 -41 -141 0 -84 -11 -111 -48
-120 -32 -7 -48 -40 -37 -74 4 -15 14 -17 58 -13 28 2 60 9 70 14 29 15 47 71
47 148 0 89 19 138 60 153 27 10 30 16 30 53 0 37 -3 43 -29 52 -43 15 -54 45
-61 160 -5 92 -8 105 -31 128 -21 20 -39 27 -88 31 l-61 6 0 -46z"/>
</g>
</svg>
